<?xml version="1.0" encoding="UTF-8"?>
<svg id="Calque_1" data-name="Calque 1" xmlns="http://www.w3.org/2000/svg" viewBox="0 0 563.25 471.47">
  <defs>
    <style>
      .cls-1 {
        fill: #11642e;
      }

      .cls-2 {
        stroke: #1c863f;
      }

      .cls-2, .cls-3, .cls-4 {
        fill: none;
        stroke-miterlimit: 10;
        stroke-width: 10.99px;
      }

      .cls-5 {
        font-family: ConthraxSb-Regular, Conthrax;
        font-size: 105.46px;
      }

      .cls-5, .cls-6 {
        fill: #0f642e;
      }

      .cls-6 {
        font-family: HoryzenMono-Bold, 'Horyzen Mono';
        font-size: 39.55px;
        font-weight: 700;
        letter-spacing: .2em;
      }

      .cls-7 {
        fill: #1c863f;
      }

      .cls-3 {
        stroke: #50b265;
      }

      .cls-4 {
        stroke: #11642e;
      }

      .cls-8 {
        fill: #50b265;
      }
    </style>
  </defs>
  <text class="cls-5" transform="translate(0 327.1)"><tspan x="0" y="0">Apollon </tspan></text>
  <line class="cls-4" x1="259.68" y1="74.71" x2="299.93" y2="74.71"/>
  <text class="cls-6" transform="translate(78.2 393.7)"><tspan x="0" y="0">Construction</tspan></text>
  <path class="cls-3" d="M327.91,127.17h-68.23c-6.75.89-11.96,6.66-11.96,13.65s5.21,12.76,11.96,13.65h79.95"/>
  <path class="cls-2" d="M314.89,100.55h-55.21c-21.44.96-38.54,18.59-38.54,40.27s17.1,39.31,38.54,40.27h95.49"/>
  <line class="cls-4" x1="259.68" y1="207.43" x2="367.7" y2="207.43"/>
  <polygon class="cls-8" points="259.32 0 302.3 69.21 289.32 69.21 253.08 10.84 259.32 0"/>
  <polygon class="cls-7" points="244.44 25.76 271.42 69.21 258.57 69.29 238.2 36.54 244.44 25.76"/>
  <polygon class="cls-1" points="229.55 51.49 242.12 71.74 231.6 75.6 223.31 62.25 229.55 51.49"/>
  <polygon class="cls-1" points="302.3 69.21 309.01 80.19 259.68 80.19 259.49 69.21 302.3 69.21"/>
  <polygon class="cls-7" points="317.76 95.05 324.61 106.05 264.7 106.04 264.7 95.05 317.76 95.05"/>
  <polygon class="cls-8" points="264.7 121.67 264.7 132.64 341.12 132.64 334.27 121.67 264.7 121.67"/>
  <polygon class="cls-8" points="265.64 148.98 265.64 159.95 358.07 159.95 351.24 148.98 265.64 148.98"/>
  <polygon class="cls-7" points="265.64 175.6 265.64 186.58 374.25 186.58 367.43 175.6 265.64 175.6"/>
  <polygon class="cls-1" points="259.68 201.94 259.55 212.91 390.53 212.91 383.7 201.94 259.68 201.94"/>
  <polygon class="cls-7" points="166.14 213.41 194.86 163.94 200.35 176.39 178.91 213.41 166.14 213.41"/>
  <polygon class="cls-8" points="196.5 213.41 214.63 181.8 220.12 194.25 209.27 213.41 196.5 213.41"/>
  <polygon class="cls-1" points="137.62 212.89 197.08 108.7 202.57 121.15 150.4 212.89 137.62 212.89"/>
  <path class="cls-4" d="M259.68,74.71c-35.94.84-64.82,30.22-64.82,66.36s28.88,65.52,64.82,66.36"/>
</svg>